# xmcd
#
# Track frame offsets: 
#        150
#        19348
#        35411
#        50048
#        65869
#        83328
#        100167
#        116046
#        132235
#        145338
#        160906
#        176214
#        194629
#        207013
#        220993
#        237118
#        251898
#        265343
#        279516
#
# Disc length: 3929 seconds
#
# Revision: 3
# Processed by: cddbd v1.5.2PL0 Copyright (c) Steve Scherf et al.
# Submitted via: ExactAudioCopy v0.99pb4
#
DISCID=270f5713
DTITLE=Stress - Renaissance
DYEAR=2007
DGENRE=Hip-Hop
TTITLE0=Mais où?
TTITLE1=Avenues [feat. Karolyn]
TTITLE2=Mode de vie
TTITLE3=Rester soi-même
TTITLE4=Mélodies de nos vies
TTITLE5=Parérs [feat. "F" and Nega]
TTITLE6=Zone
TTITLE7=Elle and moi
TTITLE8=Billyzeriers [feat. Karolyn]
TTITLE9=Nos guerres civiles
TTITLE10=20.07.03
TTITLE11=Ma Suisse [feat. Gimma and Baze]
TTITLE12=Musique de zoo
TTITLE13=Moutons
TTITLE14=Nous contre eux
TTITLE15=Comment?
TTITLE16=Alors viens!
TTITLE17=On n'a qu'une terre
TTITLE18=Elle and moi [Version 5h du mat]
EXTD=
EXTT0=
EXTT1=
EXTT2=
EXTT3=
EXTT4=
EXTT5=
EXTT6=
EXTT7=
EXTT8=
EXTT9=
EXTT10=
EXTT11=
EXTT12=
EXTT13=
EXTT14=
EXTT15=
EXTT16=
EXTT17=
EXTT18=
PLAYORDER=
